<svg width="1024" height="1024" viewBox="0 0 1024 1024" fill="none" xmlns="http://www.w3.org/2000/svg">
<rect width="1024" height="1024" fill="#D8EDFD"/>
<path fill-rule="evenodd" clip-rule="evenodd" d="M472.964 160.985C389.522 178.831 326.501 244.56 311.755 329.118C309.03 344.745 308 369.983 308 421.16V491.672L318.703 490.012C343.319 486.199 364.299 470.778 376.516 447.512C381.533 437.964 382.274 431.74 383.79 386.507C385.593 332.785 387.117 324.499 399.541 300.917C424.404 253.725 478.101 226.177 530.547 233.705C618.069 246.27 666.452 340.247 626.279 419.649C621.63 428.839 591.657 464.078 534.61 527.425C469.508 599.717 448.524 624.625 444.139 634.823C433.548 659.439 438.185 692.525 454.807 710.936L462.889 719.889L563.631 607.98C678.083 480.844 679.66 478.958 693.156 453.181C718.881 404.042 722.54 347.747 703.591 292.664C682.969 232.713 634.475 186.364 571.186 166.113C557.206 161.64 546.258 160.302 518.297 159.65C498.904 159.199 478.504 159.799 472.964 160.985ZM457.852 419.483C401.059 482.504 350.835 539.4 346.241 545.918C333.311 564.266 323.768 584.439 316.565 608.65C308.118 637.049 307.017 681.466 314.092 708.467C330.301 770.335 366.873 816.183 422.265 844.076C452.244 859.172 474.679 864.277 512.001 864.493C545.82 864.692 567.179 860.418 595.949 847.695C641.872 827.385 684.384 782.185 701.964 734.983C714.279 701.917 716.002 685.992 716.002 605.285V531.094L706.558 532.774C680.39 537.428 658.224 554.396 647.584 577.916C642.499 589.157 641.718 595.924 640.333 640.88C639.021 683.486 637.978 693.286 633.565 704.46C616.628 747.336 583.613 777.045 541.989 786.854C496.998 797.46 455.646 785.368 422.537 751.927C382.634 711.626 373.169 656.968 397.523 607.487C405.097 592.096 419.903 574.363 491.102 495.412C545.213 435.41 577.468 397.639 580.631 390.57C591.649 365.966 588.088 333.094 572.35 314.099C568.046 308.906 563.757 304.71 562.817 304.776C561.88 304.841 514.645 356.459 457.852 419.483Z" fill="#377DBF"/>
</svg>
